<svg width="189" height="111" viewBox="0 0 189 111" fill="none" xmlns="http://www.w3.org/2000/svg">
<path d="M30.5243 60.1762V60.1762C22.7435 45.462 37.2196 27.3758 56.7776 27.3758L94.0693 27.3758" stroke="#EEBBC3" stroke-width="10"/>
<path d="M159.251 50.7285V50.7285C166.251 65.8342 150.811 83.2558 131.059 82.5383L93.9191 81.1889" stroke="#EEBBC3" stroke-width="10"/>
<path d="M76.561 58.687C76.561 60.4285 76.2681 61.9504 75.6821 63.2524C75.0962 64.5464 74.2661 65.5352 73.1919 66.2188C72.1177 66.9023 70.8644 67.2441 69.4321 67.2441C68.0324 67.2441 66.7913 66.9023 65.709 66.2188C64.6266 65.527 63.7843 64.5464 63.1821 63.2769C62.5881 61.9992 62.2829 60.5221 62.2666 58.8457V57.564C62.2666 55.855 62.5636 54.3454 63.1577 53.0352C63.7518 51.7249 64.59 50.724 65.6724 50.0322C66.7629 49.3324 68.008 48.9824 69.4077 48.9824C70.8319 48.9824 72.0851 49.3283 73.1675 50.02C74.258 50.7036 75.0962 51.7005 75.6821 53.0107C76.2681 54.3128 76.561 55.8306 76.561 57.564V58.687ZM74.2295 57.5396C74.2295 55.4318 73.8063 53.8164 72.96 52.6934C72.1136 51.5622 70.9295 50.9966 69.4077 50.9966C67.9266 50.9966 66.7588 51.5622 65.9043 52.6934C65.0579 53.8164 64.6226 55.3789 64.5981 57.3809V58.687C64.5981 60.7297 65.0254 62.3369 65.8799 63.5088C66.7425 64.6725 67.9266 65.2544 69.4321 65.2544C70.9458 65.2544 72.1177 64.7051 72.9478 63.6064C73.7778 62.4997 74.2051 60.9168 74.2295 58.8579V57.5396ZM90.2202 59.8101H86.0454V67H83.6895V49.2266H89.5732C91.5752 49.2266 93.1133 49.6823 94.1875 50.5938C95.2699 51.5052 95.811 52.8317 95.811 54.5732C95.811 55.68 95.5099 56.6444 94.9077 57.4663C94.3136 58.2882 93.4836 58.9027 92.4175 59.3096L96.5923 66.8535V67H94.0776L90.2202 59.8101ZM86.0454 57.8936H89.6465C90.8102 57.8936 91.7339 57.5924 92.4175 56.9902C93.1092 56.388 93.4551 55.5824 93.4551 54.5732C93.4551 53.4746 93.1255 52.6323 92.4663 52.0464C91.8153 51.4604 90.8713 51.1634 89.6343 51.1553H86.0454V57.8936ZM115.244 49.2266V61.3115C115.236 62.988 114.707 64.3592 113.657 65.4253C112.616 66.4914 111.2 67.0895 109.409 67.2197L108.787 67.2441C106.842 67.2441 105.291 66.7192 104.136 65.6694C102.98 64.6196 102.394 63.1751 102.378 61.3359V49.2266H104.697V61.2627C104.697 62.5485 105.051 63.5495 105.759 64.2656C106.467 64.9736 107.476 65.3276 108.787 65.3276C110.113 65.3276 111.126 64.9736 111.826 64.2656C112.534 63.5576 112.888 62.5607 112.888 61.2749V49.2266H115.244ZM125.595 49.2266L131.406 63.7285L137.216 49.2266H140.256V67H137.912V60.0786L138.132 52.6079L132.297 67H130.502L124.68 52.6445L124.912 60.0786V67H122.568V49.2266H125.595Z" fill="#FFFFFE"/>
<path d="M75.6821 63.2524L76.5931 63.6649L76.5941 63.6628L75.6821 63.2524ZM65.709 66.2188L65.1705 67.0614L65.175 67.0642L65.709 66.2188ZM63.1821 63.2769L62.2753 63.6985L62.2786 63.7054L63.1821 63.2769ZM62.2666 58.8457H61.2666L61.2666 58.8554L62.2666 58.8457ZM65.6724 50.0322L66.2109 50.8748L66.2125 50.8738L65.6724 50.0322ZM73.1675 50.02L72.6289 50.8627L72.6363 50.8673L73.1675 50.02ZM75.6821 53.0107L74.7693 53.419L74.7702 53.4211L75.6821 53.0107ZM72.96 52.6934L72.1593 53.2924L72.1614 53.2952L72.96 52.6934ZM65.9043 52.6934L65.1064 52.0906L65.1057 52.0915L65.9043 52.6934ZM64.5981 57.3809L63.5981 57.3687V57.3809H64.5981ZM65.8799 63.5088L65.0719 64.098L65.0765 64.1043L65.8799 63.5088ZM72.9478 63.6064L73.7456 64.2093L73.7478 64.2064L72.9478 63.6064ZM74.2295 58.8579L75.2295 58.8698V58.8579H74.2295ZM75.561 58.687C75.561 60.3175 75.2868 61.6941 74.7702 62.8421L76.5941 63.6628C77.2493 62.2066 77.561 60.5396 77.561 58.687H75.561ZM74.7712 62.8399C74.2558 63.978 73.5467 64.8076 72.655 65.3751L73.7288 67.0624C74.9855 66.2627 75.9366 65.1147 76.5931 63.6649L74.7712 62.8399ZM72.655 65.3751C71.7607 65.9442 70.6987 66.2441 69.4321 66.2441V68.2441C71.0301 68.2441 72.4746 67.8605 73.7288 67.0624L72.655 65.3751ZM69.4321 66.2441C68.2031 66.2441 67.1507 65.9466 66.243 65.3733L65.175 67.0642C66.432 67.8581 67.8617 68.2441 69.4321 68.2441V66.2441ZM66.2475 65.3761C65.3379 64.7948 64.6153 63.9648 64.0856 62.8483L62.2786 63.7054C62.9534 65.128 63.9153 66.2592 65.1705 67.0614L66.2475 65.3761ZM64.0889 62.8552C63.5652 61.7288 63.2817 60.3967 63.2666 58.836L61.2666 58.8554C61.284 60.6476 61.6109 62.2695 62.2754 63.6985L64.0889 62.8552ZM63.2666 58.8457V57.564H61.2666V58.8457H63.2666ZM63.2666 57.564C63.2666 55.971 63.5432 54.6065 64.0685 53.4481L62.247 52.6222C61.5841 54.0842 61.2666 55.739 61.2666 57.564H63.2666ZM64.0685 53.4481C64.5925 52.2923 65.3107 51.4502 66.2109 50.8748L65.1338 49.1896C63.8694 49.9977 62.911 51.1576 62.247 52.6222L64.0685 53.4481ZM66.2125 50.8738C67.1288 50.2857 68.1834 49.9824 69.4077 49.9824V47.9824C67.8325 47.9824 66.3969 48.379 65.1322 49.1906L66.2125 50.8738ZM69.4077 49.9824C70.6625 49.9824 71.7246 50.2847 72.629 50.8626L73.706 49.1774C72.4457 48.3719 71.0012 47.9824 69.4077 47.9824V49.9824ZM72.6363 50.8673C73.5399 51.4337 74.2546 52.2681 74.7693 53.419L76.595 52.6025C75.9378 51.133 74.9761 49.9735 73.6986 49.1727L72.6363 50.8673ZM74.7702 53.4211C75.287 54.5696 75.561 55.9424 75.561 57.564H77.561C77.561 55.7187 77.2491 54.056 76.5941 52.6004L74.7702 53.4211ZM75.561 57.564V58.687H77.561V57.564H75.561ZM75.2295 57.5396C75.2295 55.3177 74.7864 53.4554 73.7586 52.0915L72.1614 53.2952C72.8262 54.1775 73.2295 55.5459 73.2295 57.5396H75.2295ZM73.7607 52.0943C72.7092 50.6889 71.2164 49.9966 69.4077 49.9966V51.9966C70.6426 51.9966 71.518 52.4354 72.1593 53.2924L73.7607 52.0943ZM69.4077 49.9966C67.6295 49.9966 66.1595 50.6964 65.1064 52.0906L66.7022 53.2961C67.358 52.4279 68.2237 51.9966 69.4077 51.9966V49.9966ZM65.1057 52.0915C64.087 53.4432 63.6242 55.241 63.5982 57.3687L65.5981 57.3931C65.621 55.5168 66.0288 54.1896 66.7029 53.2952L65.1057 52.0915ZM63.5981 57.3809V58.687H65.5981V57.3809H63.5981ZM63.5981 58.687C63.5981 60.8575 64.0509 62.6978 65.0719 64.098L66.6879 62.9196C65.9999 61.9761 65.5981 60.6018 65.5981 58.687H63.5981ZM65.0765 64.1043C66.1363 65.534 67.6245 66.2544 69.4321 66.2544V64.2544C68.2287 64.2544 67.3487 63.8111 66.6832 62.9133L65.0765 64.1043ZM69.4321 66.2544C71.2234 66.2544 72.7059 65.5854 73.7456 64.2093L72.1499 63.0036C71.5294 63.8248 70.6682 64.2544 69.4321 64.2544V66.2544ZM73.7478 64.2064C74.7538 62.865 75.2037 61.0424 75.2294 58.8698L73.2296 58.8461C73.2065 60.7912 72.8019 62.1343 72.1478 63.0064L73.7478 64.2064ZM75.2295 58.8579V57.5396H73.2295V58.8579H75.2295ZM90.2202 59.8101L91.1014 59.3373L90.8185 58.8101H90.2202V59.8101ZM86.0454 59.8101V58.8101H85.0454V59.8101H86.0454ZM86.0454 67V68H87.0454V67H86.0454ZM83.6895 67H82.6895V68H83.6895V67ZM83.6895 49.2266V48.2266H82.6895V49.2266H83.6895ZM94.1875 50.5938L93.5405 51.3563L93.5434 51.3587L94.1875 50.5938ZM94.9077 57.4663L94.101 56.8753L94.0972 56.8805L94.9077 57.4663ZM92.4175 59.3096L92.0609 58.3753L90.9848 58.786L91.5425 59.7938L92.4175 59.3096ZM96.5923 66.8535H97.5923V66.5953L97.4672 66.3693L96.5923 66.8535ZM96.5923 67V68H97.5923V67H96.5923ZM94.0776 67L93.1964 67.4728L93.4793 68H94.0776V67ZM86.0454 57.8936H85.0454V58.8936H86.0454V57.8936ZM92.4175 56.9902L91.7609 56.236L91.7565 56.2399L92.4175 56.9902ZM92.4663 52.0464L91.7973 52.7897L91.8019 52.7938L92.4663 52.0464ZM89.6343 51.1553L89.6409 50.1553H89.6343V51.1553ZM86.0454 51.1553V50.1553H85.0454V51.1553H86.0454ZM90.2202 58.8101H86.0454V60.8101H90.2202V58.8101ZM85.0454 59.8101V67H87.0454V59.8101H85.0454ZM86.0454 66H83.6895V68H86.0454V66ZM84.6895 67V49.2266H82.6895V67H84.6895ZM83.6895 50.2266H89.5732V48.2266H83.6895V50.2266ZM89.5732 50.2266C91.4366 50.2266 92.71 50.6516 93.5405 51.3563L94.8345 49.8312C93.5166 48.713 91.7138 48.2266 89.5732 48.2266V50.2266ZM93.5434 51.3587C94.3488 52.0369 94.811 53.0523 94.811 54.5732H96.811C96.811 52.6111 96.1909 50.9735 94.8316 49.8288L93.5434 51.3587ZM94.811 54.5732C94.811 55.4868 94.5667 56.2398 94.1011 56.8753L95.7144 58.0573C96.4532 57.049 96.811 55.8732 96.811 54.5732H94.811ZM94.0972 56.8805C93.6312 57.5253 92.9685 58.0289 92.0609 58.3753L92.7741 60.2438C93.9986 59.7764 94.9961 59.0512 95.7182 58.0521L94.0972 56.8805ZM91.5425 59.7938L95.7173 67.3377L97.4672 66.3693L93.2924 58.8254L91.5425 59.7938ZM95.5923 66.8535V67H97.5923V66.8535H95.5923ZM96.5923 66H94.0776V68H96.5923V66ZM94.9588 66.5272L91.1014 59.3373L89.339 60.2828L93.1964 67.4728L94.9588 66.5272ZM86.0454 58.8936H89.6465V56.8936H86.0454V58.8936ZM89.6465 58.8936C90.9841 58.8936 92.1661 58.5443 93.0785 57.7406L91.7565 56.2399C91.3016 56.6405 90.6363 56.8936 89.6465 56.8936V58.8936ZM93.0741 57.7445C94.0074 56.9319 94.4551 55.839 94.4551 54.5732H92.4551C92.4551 55.3257 92.211 55.8441 91.7609 56.236L93.0741 57.7445ZM94.4551 54.5732C94.4551 53.2646 94.054 52.1197 93.1307 51.299L91.8019 52.7938C92.197 53.1449 92.4551 53.6846 92.4551 54.5732H94.4551ZM93.1353 51.3031C92.2395 50.4969 91.0223 50.1644 89.6409 50.1553L89.6277 52.1553C90.7202 52.1624 91.3911 52.424 91.7973 52.7897L93.1353 51.3031ZM89.6343 50.1553H86.0454V52.1553H89.6343V50.1553ZM85.0454 51.1553V57.8936H87.0454V51.1553H85.0454ZM115.244 49.2266H116.244V48.2266H115.244V49.2266ZM115.244 61.3115L116.244 61.3164V61.3115H115.244ZM113.657 65.4253L112.945 64.7236L112.942 64.7264L113.657 65.4253ZM109.409 67.2197L109.448 68.219L109.465 68.2183L109.482 68.2171L109.409 67.2197ZM108.787 67.2441V68.2441H108.806L108.826 68.2434L108.787 67.2441ZM104.136 65.6694L103.463 66.4096L104.136 65.6694ZM102.378 61.3359H101.378L101.378 61.3448L102.378 61.3359ZM102.378 49.2266V48.2266H101.378V49.2266H102.378ZM104.697 49.2266H105.697V48.2266H104.697V49.2266ZM105.759 64.2656L105.048 64.9687L105.052 64.9727L105.759 64.2656ZM111.826 64.2656L111.119 63.5585L111.115 63.5626L111.826 64.2656ZM112.888 49.2266V48.2266H111.888V49.2266H112.888ZM114.244 49.2266V61.3115H116.244V49.2266H114.244ZM114.244 61.3067C114.237 62.7564 113.789 63.8665 112.945 64.7236L114.37 66.1269C115.625 64.852 116.235 63.2195 116.244 61.3164L114.244 61.3067ZM112.942 64.7264C112.104 65.5837 110.936 66.1061 109.337 66.2224L109.482 68.2171C111.463 68.073 113.127 67.399 114.372 66.1242L112.942 64.7264ZM109.37 66.2205L108.747 66.2449L108.826 68.2434L109.448 68.219L109.37 66.2205ZM108.787 66.2441C107.027 66.2441 105.737 65.7735 104.808 64.9293L103.463 66.4096C104.845 67.665 106.657 68.2441 108.787 68.2441V66.2441ZM104.808 64.9293C103.896 64.1004 103.392 62.9416 103.378 61.3271L101.378 61.3448C101.396 63.4086 102.064 65.1388 103.463 66.4096L104.808 64.9293ZM103.378 61.3359V49.2266H101.378V61.3359H103.378ZM102.378 50.2266H104.697V48.2266H102.378V50.2266ZM103.697 49.2266V61.2627H105.697V49.2266H103.697ZM103.697 61.2627C103.697 62.7355 104.108 64.0173 105.048 64.9687L106.47 63.5626C105.995 63.0817 105.697 62.3616 105.697 61.2627H103.697ZM105.052 64.9727C106 65.9209 107.296 66.3276 108.787 66.3276V64.3276C107.657 64.3276 106.934 64.0263 106.466 63.5585L105.052 64.9727ZM108.787 66.3276C110.288 66.3276 111.594 65.9234 112.537 64.9686L111.115 63.5626C110.659 64.0239 109.938 64.3276 108.787 64.3276V66.3276ZM112.533 64.9727C113.478 64.0279 113.888 62.747 113.888 61.2749H111.888C111.888 62.3744 111.59 63.0873 111.119 63.5585L112.533 64.9727ZM113.888 61.2749V49.2266H111.888V61.2749H113.888ZM112.888 50.2266H115.244V48.2266H112.888V50.2266ZM125.595 49.2266L126.523 48.8546L126.272 48.2266H125.595V49.2266ZM131.406 63.7285L130.478 64.1004L131.406 66.4172L132.334 64.1004L131.406 63.7285ZM137.216 49.2266V48.2266H136.54L136.288 48.8546L137.216 49.2266ZM140.256 49.2266H141.256V48.2266H140.256V49.2266ZM140.256 67V68H141.256V67H140.256ZM137.912 67H136.912V68H137.912V67ZM137.912 60.0786L136.913 60.0492L136.912 60.0639V60.0786H137.912ZM138.132 52.6079L139.131 52.6373L137.205 52.2322L138.132 52.6079ZM132.297 67V68H132.971L133.224 67.3757L132.297 67ZM130.502 67L129.576 67.3759L129.829 68H130.502V67ZM124.68 52.6445L125.606 52.2687L123.68 52.6757L124.68 52.6445ZM124.912 60.0786H125.912V60.063L125.911 60.0474L124.912 60.0786ZM124.912 67V68H125.912V67H124.912ZM122.568 67H121.568V68H122.568V67ZM122.568 49.2266V48.2266H121.568V49.2266H122.568ZM124.667 49.5985L130.478 64.1004L132.334 63.3566L126.523 48.8546L124.667 49.5985ZM132.334 64.1004L138.145 49.5985L136.288 48.8546L130.478 63.3566L132.334 64.1004ZM137.216 50.2266H140.256V48.2266H137.216V50.2266ZM139.256 49.2266V67H141.256V49.2266H139.256ZM140.256 66H137.912V68H140.256V66ZM138.912 67V60.0786H136.912V67H138.912ZM138.912 60.108L139.131 52.6373L137.132 52.5785L136.913 60.0492L138.912 60.108ZM137.205 52.2322L131.37 66.6243L133.224 67.3757L139.059 52.9836L137.205 52.2322ZM132.297 66H130.502V68H132.297V66ZM131.429 66.6241L125.606 52.2687L123.753 53.0204L129.576 67.3759L131.429 66.6241ZM123.68 52.6757L123.912 60.1098L125.911 60.0474L125.679 52.6133L123.68 52.6757ZM123.912 60.0786V67H125.912V60.0786H123.912ZM124.912 66H122.568V68H124.912V66ZM123.568 67V49.2266H121.568V67H123.568ZM122.568 50.2266H125.595V48.2266H122.568V50.2266Z" fill="#FFFFFE"/>
<path d="M148.316 83.1627L156.211 80.5848L158.217 87.2274L148.316 83.1627Z" fill="#B91010" stroke="#EEBBC3" stroke-width="10"/>
<path d="M55.8652 56.1509H48.4067V64H46.063V46.2266H57.0737V48.1553H48.4067V54.2344H55.8652V56.1509Z" fill="#F08E9D"/>
<path d="M55.8652 56.1509V57.1509H56.8652V56.1509H55.8652ZM48.4067 56.1509V55.1509H47.4067V56.1509H48.4067ZM48.4067 64V65H49.4067V64H48.4067ZM46.063 64H45.063V65H46.063V64ZM46.063 46.2266V45.2266H45.063V46.2266H46.063ZM57.0737 46.2266H58.0737V45.2266H57.0737V46.2266ZM57.0737 48.1553V49.1553H58.0737V48.1553H57.0737ZM48.4067 48.1553V47.1553H47.4067V48.1553H48.4067ZM48.4067 54.2344H47.4067V55.2344H48.4067V54.2344ZM55.8652 54.2344H56.8652V53.2344H55.8652V54.2344ZM55.8652 55.1509H48.4067V57.1509H55.8652V55.1509ZM47.4067 56.1509V64H49.4067V56.1509H47.4067ZM48.4067 63H46.063V65H48.4067V63ZM47.063 64V46.2266H45.063V64H47.063ZM46.063 47.2266H57.0737V45.2266H46.063V47.2266ZM56.0737 46.2266V48.1553H58.0737V46.2266H56.0737ZM57.0737 47.1553H48.4067V49.1553H57.0737V47.1553ZM47.4067 48.1553V54.2344H49.4067V48.1553H47.4067ZM48.4067 55.2344H55.8652V53.2344H48.4067V55.2344ZM54.8652 54.2344V56.1509H56.8652V54.2344H54.8652Z" fill="#F08E9D"/>
</svg>
