<svg width="420" height="285" viewBox="0 0 420 285" fill="none" xmlns="http://www.w3.org/2000/svg">
<path d="M62.5 153.5V153.5C45.6625 113.784 74.8136 69.7629 117.951 69.7629L192.56 69.7629" stroke="#B91010" stroke-width="10"/>
<path d="M358.717 131.415V131.415C373.74 171.853 342.626 214.509 299.532 212.556L225 209.179" stroke="#B91010" stroke-width="10"/>
<path d="M118.781 143.93H104.461V159H99.9609V124.875H121.102V128.578H104.461V140.25H118.781V143.93Z" fill="#B91010" fill-opacity="0.71"/>
<path d="M166.902 143.039C166.902 146.383 166.34 149.305 165.215 151.805C164.09 154.289 162.496 156.188 160.433 157.5C158.371 158.812 155.965 159.469 153.215 159.469C150.527 159.469 148.144 158.812 146.066 157.5C143.988 156.172 142.371 154.289 141.215 151.852C140.074 149.398 139.488 146.562 139.457 143.344V140.883C139.457 137.602 140.027 134.703 141.168 132.188C142.308 129.672 143.918 127.75 145.996 126.422C148.09 125.078 150.48 124.406 153.168 124.406C155.902 124.406 158.308 125.07 160.387 126.398C162.48 127.711 164.09 129.625 165.215 132.141C166.34 134.641 166.902 137.555 166.902 140.883V143.039ZM162.426 140.836C162.426 136.789 161.613 133.688 159.988 131.531C158.363 129.359 156.09 128.273 153.168 128.273C150.324 128.273 148.082 129.359 146.441 131.531C144.816 133.688 143.98 136.688 143.933 140.531V143.039C143.933 146.961 144.754 150.047 146.394 152.297C148.051 154.531 150.324 155.648 153.215 155.648C156.121 155.648 158.371 154.594 159.965 152.484C161.558 150.359 162.379 147.32 162.426 143.367V140.836ZM200.328 145.195H192.312V159H187.789V124.875H199.086C202.929 124.875 205.882 125.75 207.945 127.5C210.023 129.25 211.062 131.797 211.062 135.141C211.062 137.266 210.484 139.117 209.328 140.695C208.187 142.273 206.593 143.453 204.547 144.234L212.562 158.719V159H207.734L200.328 145.195ZM192.312 141.516H199.226C201.461 141.516 203.234 140.938 204.547 139.781C205.875 138.625 206.539 137.078 206.539 135.141C206.539 133.031 205.906 131.414 204.64 130.289C203.39 129.164 201.578 128.594 199.203 128.578H192.312V141.516ZM255.574 124.875V148.078C255.558 151.297 254.542 153.93 252.527 155.977C250.527 158.023 247.808 159.172 244.371 159.422L243.175 159.469C239.441 159.469 236.464 158.461 234.246 156.445C232.027 154.43 230.902 151.656 230.871 148.125V124.875H235.324V147.984C235.324 150.453 236.003 152.375 237.363 153.75C238.722 155.109 240.66 155.789 243.175 155.789C245.722 155.789 247.667 155.109 249.011 153.75C250.371 152.391 251.05 150.477 251.05 148.008V124.875H255.574ZM282.648 124.875L293.804 152.719L304.96 124.875H310.796V159H306.296V145.711L306.718 131.367L295.515 159H292.07L280.89 131.438L281.335 145.711V159H276.835V124.875H282.648Z" fill="black"/>
<path d="M118.781 143.93V144.93H119.781V143.93H118.781ZM104.461 143.93V142.93H103.461V143.93H104.461ZM104.461 159V160H105.461V159H104.461ZM99.9609 159H98.9609V160H99.9609V159ZM99.9609 124.875V123.875H98.9609V124.875H99.9609ZM121.102 124.875H122.102V123.875H121.102V124.875ZM121.102 128.578V129.578H122.102V128.578H121.102ZM104.461 128.578V127.578H103.461V128.578H104.461ZM104.461 140.25H103.461V141.25H104.461V140.25ZM118.781 140.25H119.781V139.25H118.781V140.25ZM118.781 142.93H104.461V144.93H118.781V142.93ZM103.461 143.93V159H105.461V143.93H103.461ZM104.461 158H99.9609V160H104.461V158ZM100.961 159V124.875H98.9609V159H100.961ZM99.9609 125.875H121.102V123.875H99.9609V125.875ZM120.102 124.875V128.578H122.102V124.875H120.102ZM121.102 127.578H104.461V129.578H121.102V127.578ZM103.461 128.578V140.25H105.461V128.578H103.461ZM104.461 141.25H118.781V139.25H104.461V141.25ZM117.781 140.25V143.93H119.781V140.25H117.781ZM165.215 151.805L166.126 152.217L166.127 152.215L165.215 151.805ZM146.066 157.5L145.528 158.343L145.532 158.345L146.066 157.5ZM141.215 151.852L140.308 152.273L140.311 152.28L141.215 151.852ZM139.457 143.344H138.457L138.457 143.353L139.457 143.344ZM145.996 126.422L146.534 127.264L146.536 127.263L145.996 126.422ZM160.387 126.398L159.848 127.241L159.855 127.246L160.387 126.398ZM165.215 132.141L164.302 132.549L164.303 132.551L165.215 132.141ZM159.988 131.531L159.187 132.13L159.19 132.133L159.988 131.531ZM146.441 131.531L145.643 130.928L145.643 130.929L146.441 131.531ZM143.933 140.531L142.933 140.519V140.531H143.933ZM146.394 152.297L145.586 152.886L145.591 152.892L146.394 152.297ZM159.965 152.484L160.763 153.087L160.765 153.084L159.965 152.484ZM162.426 143.367L163.426 143.379V143.367H162.426ZM165.902 143.039C165.902 146.272 165.358 149.048 164.303 151.394L166.127 152.215C167.321 149.561 167.902 146.494 167.902 143.039H165.902ZM164.304 151.392C163.249 153.721 161.777 155.46 159.897 156.656L160.97 158.344C163.215 156.915 164.93 154.857 166.126 152.217L164.304 151.392ZM159.897 156.656C158.014 157.854 155.799 158.469 153.215 158.469V160.469C156.13 160.469 158.728 159.771 160.97 158.344L159.897 156.656ZM153.215 158.469C150.698 158.469 148.504 157.857 146.6 156.655L145.532 158.345C147.785 159.768 150.356 160.469 153.215 160.469V158.469ZM146.605 156.657C144.699 155.44 143.202 153.707 142.118 151.423L140.311 152.28C141.54 154.871 143.277 156.904 145.528 158.343L146.605 156.657ZM142.121 151.43C141.051 149.128 140.487 146.437 140.457 143.334L138.457 143.353C138.489 146.688 139.097 149.669 140.308 152.273L142.121 151.43ZM140.457 143.344V140.883H138.457V143.344H140.457ZM140.457 140.883C140.457 137.718 141.007 134.964 142.079 132.6L140.257 131.775C139.048 134.442 138.457 137.486 138.457 140.883H140.457ZM142.079 132.6C143.149 130.239 144.638 128.476 146.534 127.264L145.457 125.579C143.197 127.024 141.468 129.105 140.257 131.775L142.079 132.6ZM146.536 127.263C148.456 126.031 150.656 125.406 153.168 125.406V123.406C150.305 123.406 147.724 124.125 145.456 125.58L146.536 127.263ZM153.168 125.406C155.733 125.406 157.948 126.027 159.848 127.241L160.925 125.556C158.669 124.114 156.072 123.406 153.168 123.406V125.406ZM159.855 127.246C161.762 128.441 163.248 130.193 164.302 132.549L166.128 131.732C164.931 129.057 163.198 126.981 160.918 125.551L159.855 127.246ZM164.303 132.551C165.359 134.897 165.902 137.667 165.902 140.883H167.902C167.902 137.443 167.321 134.384 166.127 131.73L164.303 132.551ZM165.902 140.883V143.039H167.902V140.883H165.902ZM163.426 140.836C163.426 136.675 162.593 133.326 160.787 130.929L159.19 132.133C160.633 134.049 161.426 136.903 161.426 140.836H163.426ZM160.789 130.932C158.959 128.486 156.377 127.273 153.168 127.273V129.273C155.803 129.273 157.768 130.233 159.187 132.13L160.789 130.932ZM153.168 127.273C150.027 127.273 147.483 128.494 145.643 130.928L147.239 132.134C148.681 130.225 150.621 129.273 153.168 129.273V127.273ZM145.643 130.929C143.845 133.314 142.982 136.55 142.934 140.519L144.933 140.543C144.979 136.825 145.787 134.061 147.24 132.133L145.643 130.929ZM142.933 140.531V143.039H144.933V140.531H142.933ZM142.933 143.039C142.933 147.089 143.779 150.408 145.586 152.886L147.202 151.708C145.728 149.686 144.933 146.833 144.933 143.039H142.933ZM145.591 152.892C147.444 155.393 150.022 156.648 153.215 156.648V154.648C150.626 154.648 148.657 153.67 147.198 151.701L145.591 152.892ZM153.215 156.648C156.399 156.648 158.959 155.474 160.763 153.087L159.167 151.882C157.783 153.713 155.843 154.648 153.215 154.648V156.648ZM160.765 153.084C162.534 150.725 163.377 147.446 163.426 143.379L161.426 143.355C161.38 147.195 160.582 149.994 159.165 151.884L160.765 153.084ZM163.426 143.367V140.836H161.426V143.367H163.426ZM200.328 145.195L201.209 144.723L200.926 144.195H200.328V145.195ZM192.312 145.195V144.195H191.312V145.195H192.312ZM192.312 159V160H193.312V159H192.312ZM187.789 159H186.789V160H187.789V159ZM187.789 124.875V123.875H186.789V124.875H187.789ZM207.945 127.5L207.298 128.263L207.301 128.265L207.945 127.5ZM209.328 140.695L208.521 140.104L208.517 140.11L209.328 140.695ZM204.547 144.234L204.19 143.3L203.114 143.711L203.672 144.719L204.547 144.234ZM212.562 158.719H213.562V158.461L213.437 158.235L212.562 158.719ZM212.562 159V160H213.562V159H212.562ZM207.734 159L206.853 159.473L207.136 160H207.734V159ZM192.312 141.516H191.312V142.516H192.312V141.516ZM204.547 139.781L203.89 139.027L203.886 139.031L204.547 139.781ZM204.64 130.289L203.971 131.032L203.976 131.036L204.64 130.289ZM199.203 128.578L199.209 127.578H199.203V128.578ZM192.312 128.578V127.578H191.312V128.578H192.312ZM200.328 144.195H192.312V146.195H200.328V144.195ZM191.312 145.195V159H193.312V145.195H191.312ZM192.312 158H187.789V160H192.312V158ZM188.789 159V124.875H186.789V159H188.789ZM187.789 125.875H199.086V123.875H187.789V125.875ZM199.086 125.875C202.791 125.875 205.479 126.719 207.298 128.263L208.592 126.737C206.286 124.781 203.068 123.875 199.086 123.875V125.875ZM207.301 128.265C209.102 129.782 210.062 132.018 210.062 135.141H212.062C212.062 131.576 210.944 128.718 208.589 126.735L207.301 128.265ZM210.062 135.141C210.062 137.072 209.541 138.713 208.521 140.104L210.134 141.286C211.427 139.522 212.062 137.459 212.062 135.141H210.062ZM208.517 140.11C207.505 141.511 206.078 142.579 204.19 143.3L204.903 145.169C207.108 144.327 208.87 143.036 210.138 141.281L208.517 140.11ZM203.672 144.719L211.687 159.203L213.437 158.235L205.422 143.75L203.672 144.719ZM211.562 158.719V159H213.562V158.719H211.562ZM212.562 158H207.734V160H212.562V158ZM208.615 158.527L201.209 144.723L199.447 145.668L206.853 159.473L208.615 158.527ZM192.312 142.516H199.226V140.516H192.312V142.516ZM199.226 142.516C201.635 142.516 203.666 141.889 205.208 140.532L203.886 139.031C202.802 139.986 201.287 140.516 199.226 140.516V142.516ZM205.203 140.535C206.773 139.169 207.539 137.335 207.539 135.141H205.539C205.539 136.821 204.976 138.081 203.89 139.027L205.203 140.535ZM207.539 135.141C207.539 132.821 206.834 130.901 205.305 129.542L203.976 131.036C204.977 131.927 205.539 133.241 205.539 135.141H207.539ZM205.309 129.546C203.814 128.2 201.729 127.595 199.209 127.578L199.196 129.578C201.427 129.593 202.966 130.128 203.971 131.032L205.309 129.546ZM199.203 127.578H192.312V129.578H199.203V127.578ZM191.312 128.578V141.516H193.312V128.578H191.312ZM255.574 124.875H256.574V123.875H255.574V124.875ZM255.574 148.078L256.574 148.083V148.078H255.574ZM252.527 155.977L251.814 155.275L251.812 155.278L252.527 155.977ZM244.371 159.422L244.41 160.421L244.426 160.42L244.443 160.419L244.371 159.422ZM243.175 159.469V160.469H243.195L243.214 160.468L243.175 159.469ZM230.871 148.125H229.871L229.871 148.134L230.871 148.125ZM230.871 124.875V123.875H229.871V124.875H230.871ZM235.324 124.875H236.324V123.875H235.324V124.875ZM237.363 153.75L236.652 154.453L236.656 154.457L237.363 153.75ZM249.011 153.75L248.304 153.043L248.3 153.047L249.011 153.75ZM251.05 124.875V123.875H250.05V124.875H251.05ZM254.574 124.875V148.078H256.574V124.875H254.574ZM254.574 148.073C254.559 151.065 253.624 153.437 251.814 155.275L253.239 156.678C255.461 154.422 256.557 151.528 256.574 148.083L254.574 148.073ZM251.812 155.278C250.016 157.116 247.544 158.188 244.298 158.425L244.443 160.419C248.072 160.155 251.038 158.931 253.242 156.675L251.812 155.278ZM244.331 158.423L243.136 158.47L243.214 160.468L244.41 160.421L244.331 158.423ZM243.175 158.469C239.626 158.469 236.91 157.515 234.918 155.705L233.573 157.185C236.018 159.407 239.256 160.469 243.175 160.469V158.469ZM234.918 155.705C232.943 153.911 231.9 151.423 231.871 148.116L229.871 148.134C229.904 151.89 231.111 154.949 233.573 157.185L234.918 155.705ZM231.871 148.125V124.875H229.871V148.125H231.871ZM230.871 125.875H235.324V123.875H230.871V125.875ZM234.324 124.875V147.984H236.324V124.875H234.324ZM234.324 147.984C234.324 150.64 235.06 152.843 236.652 154.453L238.074 153.047C236.947 151.907 236.324 150.266 236.324 147.984H234.324ZM236.656 154.457C238.255 156.057 240.48 156.789 243.175 156.789V154.789C240.84 154.789 239.189 154.162 238.07 153.043L236.656 154.457ZM243.175 156.789C245.897 156.789 248.135 156.059 249.722 154.453L248.3 153.047C247.2 154.16 245.547 154.789 243.175 154.789V156.789ZM249.718 154.457C251.315 152.861 252.05 150.663 252.05 148.008H250.05C250.05 150.29 249.427 151.92 248.304 153.043L249.718 154.457ZM252.05 148.008V124.875H250.05V148.008H252.05ZM251.05 125.875H255.574V123.875H251.05V125.875ZM282.648 124.875L283.576 124.503L283.324 123.875H282.648V124.875ZM293.804 152.719L292.876 153.091L293.804 155.407L294.732 153.091L293.804 152.719ZM304.96 124.875V123.875H304.284L304.032 124.503L304.96 124.875ZM310.796 124.875H311.796V123.875H310.796V124.875ZM310.796 159V160H311.796V159H310.796ZM306.296 159H305.296V160H306.296V159ZM306.296 145.711L305.297 145.682L305.296 145.696V145.711H306.296ZM306.718 131.367L307.718 131.397L305.791 130.991L306.718 131.367ZM295.515 159V160H296.189L296.442 159.376L295.515 159ZM292.07 159L291.143 159.376L291.396 160H292.07V159ZM280.89 131.438L281.817 131.062L279.89 131.469L280.89 131.438ZM281.335 145.711H282.335V145.695L282.335 145.68L281.335 145.711ZM281.335 159V160H282.335V159H281.335ZM276.835 159H275.835V160H276.835V159ZM276.835 124.875V123.875H275.835V124.875H276.835ZM281.72 125.247L292.876 153.091L294.732 152.347L283.576 124.503L281.72 125.247ZM294.732 153.091L305.889 125.247L304.032 124.503L292.876 152.347L294.732 153.091ZM304.96 125.875H310.796V123.875H304.96V125.875ZM309.796 124.875V159H311.796V124.875H309.796ZM310.796 158H306.296V160H310.796V158ZM307.296 159V145.711H305.296V159H307.296ZM307.296 145.74L307.718 131.397L305.719 131.338L305.297 145.682L307.296 145.74ZM305.791 130.991L294.588 158.624L296.442 159.376L307.645 131.743L305.791 130.991ZM295.515 158H292.07V160H295.515V158ZM292.996 158.624L281.817 131.062L279.963 131.813L291.143 159.376L292.996 158.624ZM279.89 131.469L280.336 145.742L282.335 145.68L281.89 131.406L279.89 131.469ZM280.335 145.711V159H282.335V145.711H280.335ZM281.335 158H276.835V160H281.335V158ZM277.835 159V124.875H275.835V159H277.835ZM276.835 125.875H282.648V123.875H276.835V125.875Z" fill="black"/>
<path d="M310.167 217.943L346.741 203.047L356.035 241.43L310.167 217.943Z" fill="#B91010" stroke="#B91010" stroke-width="10"/>
</svg>
